HIERARCHY
ROOT reference
{
  OFFSET 0 0 0
  CHANNELS 6 Xposition Yposition Zposition Zrotation Xrotation Yrotation
  JOINT Hips
  {
    OFFSET 339.145 90.8604 236.464
    CHANNELS 3 Zrotation Xrotation Yrotation
    JOINT RightUpLeg
    {
      OFFSET -9.24113 -1.522 -0.0337757
      CHANNELS 3 Zrotation Xrotation Yrotation
      JOINT RightLeg
      {
        OFFSET 0.0344394 -41.8985 0.100154
        CHANNELS 3 Zrotation Xrotation Yrotation
        JOINT RightFoot
        {
          OFFSET -0.415571 -42.0751 0.023027
          CHANNELS 3 Zrotation Xrotation Yrotation
          End Site
          {
            OFFSET 0 -7.69 17.5
          }
        }
      }
    }
    JOINT LeftUpLeg
    {
      OFFSET 9.30897 -1.67379 -0.0291548
      CHANNELS 3 Zrotation Xrotation Yrotation
      JOINT LeftLeg
      {
        OFFSET 0.0832755 -41.864 -0.14338
        CHANNELS 3 Zrotation Xrotation Yrotation
        JOINT LeftFoot
        {
          OFFSET 0.17151 -41.5225 0.735469
          CHANNELS 3 Zrotation Xrotation Yrotation
          End Site
          {
            OFFSET 0 -7.69 17.5
          }
        }
      }
    }
    JOINT Spine
    {
      OFFSET 0.00853273 14.2903 0.0777264
      CHANNELS 3 Zrotation Xrotation Yrotation
      JOINT Spine1
      {
        OFFSET 0.0173944 9.71323 0.029081
        CHANNELS 3 Zrotation Xrotation Yrotation
        JOINT Spine2
        {
          OFFSET 0.0412483 10.1247 -0.0145163
          CHANNELS 3 Zrotation Xrotation Yrotation
          JOINT Spine3
          {
            OFFSET 0.0279063 9.71793 0.00755232
            CHANNELS 3 Zrotation Xrotation Yrotation
            JOINT Neck
            {
              OFFSET 0.0852486 10.3712 0.0268485
              CHANNELS 3 Zrotation Xrotation Yrotation
              JOINT Head
              {
                OFFSET 0.0739267 9.48251 0.0332551
                CHANNELS 3 Zrotation Xrotation Yrotation
                End Site
                {
                  OFFSET 0 15.95 0
                }
              }
            }
            JOINT RightShoulder
            {
              OFFSET -3.14957 6.95772 0.0300988
              CHANNELS 3 Zrotation Xrotation Yrotation
              JOINT RightArm
              {
                OFFSET -12.7513 0.0411148 0.0791701
                CHANNELS 3 Zrotation Xrotation Yrotation
                JOINT RightForeArm
                {
                  OFFSET -26.4959 0.0361336 0.259434
                  CHANNELS 3 Zrotation Xrotation Yrotation
                  JOINT RightHand
                  {
                    OFFSET -25.9829 -0.0837334 0.191464
                    CHANNELS 3 Zrotation Xrotation Yrotation
                    JOINT RightHandThumb1
                    {
                      OFFSET -2.48905 0.190105 3.12053
                      CHANNELS 3 Zrotation Xrotation Yrotation
                      JOINT RightHandThumb2
                      {
                        OFFSET -3.68274 0 0
                        CHANNELS 3 Zrotation Xrotation Yrotation
                        JOINT RightHandThumb3
                        {
                          OFFSET -2.55832 0 0
                          CHANNELS 3 Zrotation Xrotation Yrotation
                          End Site
                          {
                            OFFSET -2.194 0 0
                          }
                        }
                      }
                    }
                    JOINT RightInHandIndex
                    {
                      OFFSET -3.22368 0.508421 1.97842
                      CHANNELS 3 Zrotation Xrotation Yrotation
                      JOINT RightHandIndex1
                      {
                        OFFSET -5.21684 -0.091368 0.999158
                        CHANNELS 3 Zrotation Xrotation Yrotation
                        JOINT RightHandIndex2
                        {
                          OFFSET -3.61937 0 0
                          CHANNELS 3 Zrotation Xrotation Yrotation
                          JOINT RightHandIndex3
                          {
                            OFFSET -2.0521 0 0
                            CHANNELS 3 Zrotation Xrotation Yrotation
                            End Site
                            {
                              OFFSET -1.805 0 0
                            }
                          }
                        }
                      }
                    }
                    JOINT RightInHandMiddle
                    {
                      OFFSET -3.38211 0.517263 0.756737
                      CHANNELS 3 Zrotation Xrotation Yrotation
                      JOINT RightHandMiddle1
                      {
                        OFFSET -5.17411 -0.084 0.313895
                        CHANNELS 3 Zrotation Xrotation Yrotation
                        JOINT RightHandMiddle2
                        {
                          OFFSET -3.94947 0 0
                          CHANNELS 3 Zrotation Xrotation Yrotation
                          JOINT RightHandMiddle3
                          {
                            OFFSET -2.47579 0 0
                            CHANNELS 3 Zrotation Xrotation Yrotation
                            End Site
                            {
                              OFFSET -1.975 0 0
                            }
                          }
                        }
                      }
                    }
                    JOINT RightInHandRing
                    {
                      OFFSET -3.36516 0.537895 -0.128947
                      CHANNELS 3 Zrotation Xrotation Yrotation
                      JOINT RightHandRing1
                      {
                        OFFSET -4.63474 -0.022105 -0.478947
                        CHANNELS 3 Zrotation Xrotation Yrotation
                        JOINT RightHandRing2
                        {
                          OFFSET -3.44238 0 0
                          CHANNELS 3 Zrotation Xrotation Yrotation
                          JOINT RightHandRing3
                          {
                            OFFSET -2.3881 0 0
                            CHANNELS 3 Zrotation Xrotation Yrotation
                            End Site
                            {
                              OFFSET -1.857 0 0
                            }
                          }
                        }
                      }
                    }
                    JOINT RightInHandPinky
                    {
                      OFFSET -3.16105 0.469368 -1.20179
                      CHANNELS 3 Zrotation Xrotation Yrotation
                      JOINT RightHandPinky1
                      {
                        OFFSET -4.14105 -0.022105 -1.09053
                        CHANNELS 3 Zrotation Xrotation Yrotation
                        JOINT RightHandPinky2
                        {
                          OFFSET -2.75653 0 0
                          CHANNELS 3 Zrotation Xrotation Yrotation
                          JOINT RightHandPinky3
                          {
                            OFFSET -1.74189 0 0
                            CHANNELS 3 Zrotation Xrotation Yrotation
                            End Site
                            {
                              OFFSET -1.645 0 0
                            }
                          }
                        }
                      }
                    }
                  }
                }
              }
            }
            JOINT LeftShoulder
            {
              OFFSET 3.25273 6.91522 -0.0295735
              CHANNELS 3 Zrotation Xrotation Yrotation
              JOINT LeftArm
              {
                OFFSET 12.7785 0.0134102 -0.0213482
                CHANNELS 3 Zrotation Xrotation Yrotation
                JOINT LeftForeArm
                {
                  OFFSET 26.5044 -0.0446277 0.0404034
                  CHANNELS 3 Zrotation Xrotation Yrotation
                  JOINT LeftHand
                  {
                    OFFSET 25.9955 -0.0467726 -0.0166804
                    CHANNELS 3 Zrotation Xrotation Yrotation
                    JOINT LeftHandThumb1
                    {
                      OFFSET 2.48905 0.190105 3.12053
                      CHANNELS 3 Zrotation Xrotation Yrotation
                      JOINT LeftHandThumb2
                      {
                        OFFSET 3.68274 0 0
                        CHANNELS 3 Zrotation Xrotation Yrotation
                        JOINT LeftHandThumb3
                        {
                          OFFSET 2.55832 0 0
                          CHANNELS 3 Zrotation Xrotation Yrotation
                          End Site
                          {
                            OFFSET 2.194 0 0
                          }
                        }
                      }
                    }
                    JOINT LeftInHandIndex
                    {
                      OFFSET 3.22368 0.508421 1.97842
                      CHANNELS 3 Zrotation Xrotation Yrotation
                      JOINT LeftHandIndex1
                      {
                        OFFSET 5.21684 -0.091368 0.999158
                        CHANNELS 3 Zrotation Xrotation Yrotation
                        JOINT LeftHandIndex2
                        {
                          OFFSET 3.61937 0 0
                          CHANNELS 3 Zrotation Xrotation Yrotation
                          JOINT LeftHandIndex3
                          {
                            OFFSET 2.0521 0 0
                            CHANNELS 3 Zrotation Xrotation Yrotation
                            End Site
                            {
                              OFFSET 1.805 0 0
                            }
                          }
                        }
                      }
                    }
                    JOINT LeftInHandMiddle
                    {
                      OFFSET 3.38211 0.517263 0.756737
                      CHANNELS 3 Zrotation Xrotation Yrotation
                      JOINT LeftHandMiddle1
                      {
                        OFFSET 5.17411 -0.084 0.313895
                        CHANNELS 3 Zrotation Xrotation Yrotation
                        JOINT LeftHandMiddle2
                        {
                          OFFSET 3.94947 0 0
                          CHANNELS 3 Zrotation Xrotation Yrotation
                          JOINT LeftHandMiddle3
                          {
                            OFFSET 2.47579 0 0
                            CHANNELS 3 Zrotation Xrotation Yrotation
                            End Site
                            {
                              OFFSET 1.975 0 0
                            }
                          }
                        }
                      }
                    }
                    JOINT LeftInHandRing
                    {
                      OFFSET 3.36516 0.537895 -0.128947
                      CHANNELS 3 Zrotation Xrotation Yrotation
                      JOINT LeftHandRing1
                      {
                        OFFSET 4.63474 -0.022105 -0.478947
                        CHANNELS 3 Zrotation Xrotation Yrotation
                        JOINT LeftHandRing2
                        {
                          OFFSET 3.44238 0 0
                          CHANNELS 3 Zrotation Xrotation Yrotation
                          JOINT LeftHandRing3
                          {
                            OFFSET 2.3881 0 0
                            CHANNELS 3 Zrotation Xrotation Yrotation
                            End Site
                            {
                              OFFSET 1.857 0 0
                            }
                          }
                        }
                      }
                    }
                    JOINT LeftInHandPinky
                    {
                      OFFSET 3.16105 0.469368 -1.20179
                      CHANNELS 3 Zrotation Xrotation Yrotation
                      JOINT LeftHandPinky1
                      {
                        OFFSET 4.14105 -0.022105 -1.09053
                        CHANNELS 3 Zrotation Xrotation Yrotation
                        JOINT LeftHandPinky2
                        {
                          OFFSET 2.75653 0 0
                          CHANNELS 3 Zrotation Xrotation Yrotation
                          JOINT LeftHandPinky3
                          {
                            OFFSET 1.74189 0 0
                            CHANNELS 3 Zrotation Xrotation Yrotation
                            End Site
                            {
                              OFFSET 1.645 0 0
                            }
                          }
                        }
                      }
                    }
                  }
                }
              }
            }
          }
        }
      }
    }
  }
}
MOTION
Frames: 2
Frame Time: 0.00833333
9.000000000000000000e+02 0.000000000000000000e+00 0.000000000000000000e+00 0.000000000000000000e+00 0.000000000000000000e+00 0.000000000000000000e+00 -6.181388984572746104e+00 5.478467319376923328e+00 6.915419253381807607e+01 -2.592926031569786716e+01 1.267772860380546263e+01 -2.166904422795668239e+01 2.563066472910191962e+00 -1.455952895071186193e+00 -8.710677956055441484e+00 -2.283721854805431217e+00 6.420802838602033269e+00 -1.743522155547132968e+01 -2.475424682141031951e+01 -5.405815997695947672e+00 -2.233766554205143962e+01 1.922386678233191049e+01 -1.170434089033555658e+01 -2.340011425845784743e+01 -1.968538545493933256e+00 3.570439155610670490e+00 -2.550066812209018963e+01 8.446434738094805716e-01 5.315152981810272514e+00 2.357284541341030959e+01 2.945146603650401484e-01 1.302946841475567386e+00 5.888231245594054641e+00 5.317314199313472045e-01 1.998104092010481114e+00 9.002982968893487481e+00 5.575757388220717869e-01 1.497370424695329549e-01 -2.703311039315961839e+00 1.633272464928800405e+00 3.271971588527071262e+00 -3.899384190040129283e+01 8.982862731445269588e+00 -3.391254532217154782e+00 -2.850712587574436441e+01 -5.021844037902751801e+00 -1.073267086664251124e+01 1.642585573503473739e+01 6.726115035629244510e+00 4.821847140073623450e+01 3.847372835596372909e+01 -2.774981782554816334e+01 -1.282088561599950971e+01 -5.037847528475521841e+01 4.427516420599487468e+00 6.400198452243440528e+00 -1.162185065948101403e+01 0.000000000000000000e+00 0.000000000000000000e+00 0.000000000000000000e+00 -5.501883939753419295e-16 8.246200211866714031e-16 0.000000000000000000e+00 2.459845096648413826e-16 8.191053831748916607e-16 0.000000000000000000e+00 -1.052227352502434647e-15 -3.481770847355235858e-16 1.512624426559741014e-15 0.000000000000000000e+00 0.000000000000000000e+00 0.000000000000000000e+00 0.000000000000000000e+00 2.598470614313875296e-15 3.306265135451217068e-15 0.000000000000000000e+00 4.074827339866490692e-16 1.482662474482262566e-15 -1.052227352502434647e-15 -3.481770847355235858e-16 1.512624426559741014e-15 0.000000000000000000e+00 -6.452448188101538280e-16 2.554315597058238351e-15 0.000000000000000000e+00 1.211850285791881954e-15 1.582474149084967594e-15 0.000000000000000000e+00 2.885939435783433755e-15 6.429000492179331643e-15 -1.052227352502434647e-15 -3.481770847355235858e-16 1.512624426559741014e-15 0.000000000000000000e+00 0.000000000000000000e+00 0.000000000000000000e+00 0.000000000000000000e+00 4.032793696178004340e-15 1.196248983698910260e-14 0.000000000000000000e+00 4.566035689083561675e-15 7.945155187240271086e-15 -1.052227352502434647e-15 -3.481770847355235858e-16 1.512624426559741014e-15 0.000000000000000000e+00 0.000000000000000000e+00 0.000000000000000000e+00 0.000000000000000000e+00 -9.021038147208058642e-17 8.664397025813600256e-15 0.000000000000000000e+00 -2.472654416268133003e-15 4.672274487442083481e-15 -5.761006656949800409e+00 8.058144909936906686e+00 1.775452917459767477e+01 -2.098532748509484946e+01 -1.048952618507185797e+01 3.362068779951507480e+01 -3.370097168751241412e+01 -2.750863941592157147e+01 -3.034312912981300769e+01 2.414036506278002037e+00 -2.684731480861366926e+00 -4.357531829285755665e-01 0.000000000000000000e+00 0.000000000000000000e+00 0.000000000000000000e+00 2.404006659529173890e-15 -7.760465689131509156e-16 0.000000000000000000e+00 -3.455485320055684432e-16 6.529470804076734777e-16 0.000000000000000000e+00 1.930612442252376939e-15 1.358428467788925185e-15 -7.398782547210556511e-16 0.000000000000000000e+00 0.000000000000000000e+00 0.000000000000000000e+00 0.000000000000000000e+00 2.212496015514696525e-15 -7.043170486578963805e-15 0.000000000000000000e+00 -1.083424997538039316e-15 -3.608287212386584891e-15 1.930612442252376939e-15 1.358428467788925185e-15 -7.398782547210556511e-16 0.000000000000000000e+00 1.496244885233797606e-15 -5.250037638322918044e-15 0.000000000000000000e+00 -1.451700013581181695e-16 -7.793394517869171705e-15 0.000000000000000000e+00 -4.877582578927011313e-15 -7.459194040242663561e-15 1.930612442252376939e-15 1.358428467788925185e-15 -7.398782547210556511e-16 0.000000000000000000e+00 0.000000000000000000e+00 0.000000000000000000e+00 0.000000000000000000e+00 1.247035313551623276e-15 -7.017115039708173557e-15 0.000000000000000000e+00 1.489236177924954848e-15 -7.224497030947039639e-15 1.930612442252376939e-15 1.358428467788925185e-15 -7.398782547210556511e-16 0.000000000000000000e+00 0.000000000000000000e+00 0.000000000000000000e+00 0.000000000000000000e+00 -1.018820825703777234e-15 -8.123052094676211791e-15 0.000000000000000000e+00 2.310745433123651306e-15 -1.579757101930782608e-15
9.000000000000000000e+02 0.000000000000000000e+00 0.000000000000000000e+00 0.000000000000000000e+00 0.000000000000000000e+00 0.000000000000000000e+00 -6.163116324641428001e+00 5.312966709029241841e+00 6.842430553075031696e+01 -2.538618106178014244e+01 1.271329977928258259e+01 -2.115319366732633455e+01 2.503894599922867670e+00 -1.539189139837891851e+00 -8.547803379502555643e+00 -2.420378455664277784e+00 6.679275465024642422e+00 -1.694414826091349724e+01 -2.440003791826210744e+01 -5.104728389611276285e+00 -2.195162357837375566e+01 1.890319617681480935e+01 -1.157858751746045911e+01 -2.308895785403154122e+01 -1.913016320591369279e+00 3.462890409443001083e+00 -2.522794509941023477e+01 7.451593922398638270e-01 5.128319118076019478e+00 2.356680172953374353e+01 2.675923900864490279e-01 1.251255571872650574e+00 5.884877680328290062e+00 4.881095615785236985e-01 1.913350449374353834e+00 8.990766899018732161e+00 5.506693536687734536e-01 1.390462733530030970e-01 -2.670539484489783177e+00 1.615064449108274847e+00 3.174995893200400765e+00 -3.871202502691376424e+01 8.865728765432683289e+00 -3.376505480848418728e+00 -2.805854130911774291e+01 -5.015552366580017463e+00 -1.056344679722612590e+01 1.627793556693725208e+01 6.417845448186514368e+00 4.765584114983109743e+01 3.831513117030459625e+01 -2.759022828601600352e+01 -1.260318583484463417e+01 -4.922872398168414065e+01 4.589175477303022888e+00 6.489281951270031712e+00 -1.157553306887882094e+01 0.000000000000000000e+00 0.000000000000000000e+00 0.000000000000000000e+00 -5.065205202810429387e-16 7.928751838106064647e-16 0.000000000000000000e+00 3.084505340013045742e-16 7.543401731714721066e-16 0.000000000000000000e+00 -9.941979033198341937e-16 -3.242235884100460781e-16 1.511902454670246405e-15 0.000000000000000000e+00 0.000000000000000000e+00 0.000000000000000000e+00 0.000000000000000000e+00 2.542242100109088898e-15 3.215254619882445023e-15 0.000000000000000000e+00 3.947478307959399963e-16 1.526390677409729676e-15 -9.941979033198341937e-16 -3.242235884100460781e-16 1.511902454670246405e-15 0.000000000000000000e+00 -6.423876864465357156e-16 2.416680150387499154e-15 0.000000000000000000e+00 1.206533783796497447e-15 1.617353450286133963e-15 0.000000000000000000e+00 2.853570351493995937e-15 6.407687872808417581e-15 -9.941979033198341937e-16 -3.242235884100460781e-16 1.511902454670246405e-15 0.000000000000000000e+00 0.000000000000000000e+00 0.000000000000000000e+00 0.000000000000000000e+00 4.117164238660455073e-15 1.279708795300760499e-14 0.000000000000000000e+00 4.482091744960960760e-15 7.772022293455649375e-15 -9.941979033198341937e-16 -3.242235884100460781e-16 1.511902454670246405e-15 0.000000000000000000e+00 0.000000000000000000e+00 0.000000000000000000e+00 0.000000000000000000e+00 -6.199690736383554383e-17 8.541983666778987980e-15 0.000000000000000000e+00 -2.408950810955397014e-15 4.673150690578863462e-15 -5.866050253740870524e+00 7.996173648004122114e+00 1.750035365460876591e+01 -2.084461381462371321e+01 -1.065148142851682778e+01 3.332532669936300351e+01 -3.294663975450266236e+01 -2.691098029553696946e+01 -3.053840145082747526e+01 2.521328299397948669e+00 -2.637930920137109059e+00 -4.765580206175535904e-01 0.000000000000000000e+00 0.000000000000000000e+00 0.000000000000000000e+00 2.444299526401722984e-15 -7.692216291616387694e-16 0.000000000000000000e+00 -3.167436134541717723e-16 6.392698224080705528e-16 0.000000000000000000e+00 1.896772980177034301e-15 1.348856283708408167e-15 -7.224305338481685029e-16 0.000000000000000000e+00 0.000000000000000000e+00 0.000000000000000000e+00 0.000000000000000000e+00 2.104539509265564744e-15 -6.748255243983367928e-15 0.000000000000000000e+00 -1.065745394220034343e-15 -3.378712781207970796e-15 1.896772980177034301e-15 1.348856283708408167e-15 -7.224305338481685029e-16 0.000000000000000000e+00 1.438981107727540383e-15 -5.091456094931761183e-15 0.000000000000000000e+00 -1.329555107532459207e-16 -7.498915137805340909e-15 0.000000000000000000e+00 -4.824197459082370411e-15 -7.192716670992400098e-15 1.896772980177034301e-15 1.348856283708408167e-15 -7.224305338481685029e-16 0.000000000000000000e+00 0.000000000000000000e+00 0.000000000000000000e+00 0.000000000000000000e+00 1.267962235608196760e-15 -6.774612567463856546e-15 0.000000000000000000e+00 1.400222123726573113e-15 -6.980491198539410364e-15 1.896772980177034301e-15 1.348856283708408167e-15 -7.224305338481685029e-16 0.000000000000000000e+00 0.000000000000000000e+00 0.000000000000000000e+00 0.000000000000000000e+00 -1.042657599574949225e-15 -7.910276307933555486e-15 0.000000000000000000e+00 2.270156137627994357e-15 -1.449800574391631363e-15
